<?xml version="1.0" encoding="utf-8"?>
<!DOCTYPE svg PUBLIC "-//W3C//DTD SVG 20010904//EN" "http://www.w3.org/TR/2001/REC-SVG-20010904/DTD/svg10.dtd">
<svg version="1.0" xmlns="http://www.w3.org/2000/svg" width="258pt" height="258pt" viewBox="0 0 258 258" style="" preserveAspectRatio="xMidYMid meet">
    <g fill="#333333A4" stroke="#333333A4">
        <path d="M 11.000 129.000 L 11.000 247.000 129.000 247.000 L 247.000 247.000 247.000 129.000 L 247.000 11.000 129.000 11.000 L 11.000 11.000 11.000 129.000 M 246.000 129.000 L 246.000 246.000 129.000 246.000 L 12.000 246.000 12.000 129.000 L 12.000 12.000 129.000 12.000 L 246.000 12.000 246.000 129.000 "/></g>
    <g fill="#333333FF" stroke="#333333FF">
        <path d="M 12.000 129.000 L 12.000 246.000 129.000 246.000 L 246.000 246.000 246.000 129.000 L 246.000 12.000 129.000 12.000 L 12.000 12.000 12.000 129.000 M 235.000 129.000 L 235.000 235.000 129.000 235.000 L 23.000 235.000 23.000 129.000 L 23.000 23.000 129.000 23.000 L 235.000 23.000 235.000 129.000 "/></g>
    <g fill="#333333FF" stroke="#333333FF">
        <path d="M 137.000 129.029 L 137.000 210.467 148.500 199.000 L 160.000 187.533 160.000 191.969 L 160.000 196.406 164.000 192.500 C 167.626 188.960 168.000 188.120 168.000 183.531 L 168.000 178.467 179.500 167.000 L 191.000 155.533 190.947 129.016 L 190.895 102.500 163.947 75.045 L 137.000 47.591 137.000 129.029 M 164.917 101.687 L 172.000 109.375 172.000 129.032 C 172.000 147.420 171.871 148.807 170.000 150.500 C 168.020 152.292 168.000 152.247 168.000 145.952 L 168.000 139.594 164.000 143.500 C 160.127 147.282 160.000 147.617 160.000 154.048 C 160.000 159.420 159.618 161.036 158.000 162.500 C 156.004 164.307 156.000 164.247 156.000 129.155 C 156.000 108.520 156.379 94.000 156.917 94.000 C 157.421 94.000 161.021 97.459 164.917 101.687 "/></g>
    <g fill="#333333FF" stroke="#333333FF">
        <path d="M 111.261 57.237 L 102.023 66.515 101.761 107.507 L 101.500 148.500 98.091 140.000 C 92.585 126.270 93.199 126.690 89.410 134.057 L 86.097 140.500 86.049 112.020 L 86.000 83.540 76.500 93.000 L 67.000 102.460 67.000 129.000 L 67.000 155.540 76.468 164.968 C 81.676 170.154 86.097 174.195 86.294 173.949 C 86.491 173.702 87.668 171.813 88.908 169.750 C 90.148 167.688 91.308 166.000 91.485 166.000 C 91.662 166.000 94.189 171.835 97.100 178.966 C 102.343 191.808 102.483 192.021 111.703 201.202 L 121.012 210.472 120.756 129.216 L 120.500 47.960 111.261 57.237 "/></g>
    <g fill="#333333FF" stroke="#333333FF">
        <path d="M 48.679 121.557 L 41.857 129.000 48.679 136.443 L 55.500 143.885 55.500 129.000 L 55.500 114.115 48.679 121.557 "/></g>
    <g fill="#333333FF" stroke="#333333FF">
        <path d="M 202.000 128.985 L 202.000 144.007 208.750 136.883 C 212.463 132.965 215.500 129.425 215.500 129.016 C 215.500 128.608 212.463 125.053 208.750 121.118 L 202.000 113.963 202.000 128.985 "/></g>
    <g fill="#3232324D" stroke="#3232324D">
        <path d="M 136.241 100.750 L 136.482 154.500 136.750 101.071 L 137.018 47.643 140.259 50.571 L 143.500 53.500 140.563 50.250 C 138.948 48.463 137.260 47.000 136.813 47.000 C 136.366 47.000 136.108 71.188 136.241 100.750 "/></g>
    <g fill="#33333323" stroke="#33333323">
        <path d="M 66.219 128.691 C 66.098 143.646 66.338 156.091 66.750 156.347 C 67.163 156.602 67.261 144.366 66.969 129.156 L 66.438 101.500 66.219 128.691 "/></g>
    <g fill="#333333A4" stroke="#333333A4">
        <path d="M 169.500 80.500 L 185.000 96.000 169.500 80.500 L 154.000 65.000 169.500 80.500 "/></g>
    <g fill="#333333A4" stroke="#333333A4">
        <path d="M 209.980 122.249 L 216.440 128.998 210.481 135.249 L 204.522 141.500 211.001 135.250 L 217.481 128.999 210.500 122.250 L 203.520 115.500 209.980 122.249 "/></g>
    <g fill="#333333A4" stroke="#333333A4">
        <path d="M 46.023 123.681 L 40.545 129.023 46.511 134.762 L 52.476 140.500 47.045 134.773 L 41.614 129.046 46.557 123.693 L 51.500 118.339 46.023 123.681 "/></g>
    <g fill="#333333A4" stroke="#333333A4">
        <path d="M 178.000 168.976 L 168.500 178.537 178.000 168.976 L 187.500 159.415 178.000 168.976 "/></g>
    <g fill="#3232324D" stroke="#3232324D">
        <path d="M 161.750 144.913 C 159.226 147.387 159.015 148.181 159.180 154.555 L 159.360 161.500 159.930 154.399 C 160.326 149.464 161.110 146.524 162.500 144.758 C 164.410 142.332 164.376 142.339 161.750 144.913 "/></g>
    <g fill="#3232324D" stroke="#3232324D">
        <path d="M 144.889 202.725 C 140.153 207.276 136.578 211.000 136.945 211.000 C 137.311 211.000 141.186 207.276 145.556 202.725 L 153.500 194.449 144.889 202.725 "/></g>
    <g fill="#33333323" stroke="#33333323">
        <path d="M 151.500 61.500 L 160.000 70.000 151.500 61.500 L 143.000 53.000 151.500 61.500 "/></g>
    <g fill="#333333A4" stroke="#333333A4">
        <path d="M 78.000 90.970 L 70.500 98.543 78.000 90.970 L 85.500 83.397 78.000 90.970 "/></g>
    <g fill="#33333323" stroke="#33333323">
        <path d="M 164.000 102.000 L 171.000 109.000 164.000 102.000 L 157.000 95.000 164.000 102.000 "/></g>
    <g fill="#3232324D" stroke="#3232324D">
        <path d="M 115.000 205.000 L 121.000 211.000 115.000 205.000 L 109.000 199.000 115.000 205.000 "/></g>
    <g fill="#3232324D" stroke="#3232324D">
        <path d="M 114.000 53.961 L 108.500 59.551 114.000 53.961 L 119.500 48.370 114.000 53.961 "/></g>
    <g fill="#333333A4" stroke="#333333A4">
        <path d="M 80.462 169.784 C 83.192 172.653 85.752 175.000 86.153 175.000 C 86.553 175.000 84.320 172.653 81.190 169.784 L 75.500 164.568 80.462 169.784 "/></g>
    <g fill="#333333A4" stroke="#333333A4">
        <path d="M 162.500 99.500 L 168.000 105.000 162.500 99.500 L 157.000 94.000 162.500 99.500 "/></g>
    <g fill="#33333323" stroke="#33333323">
        <path d="M 51.500 140.500 L 56.000 145.000 51.500 140.500 L 47.000 136.000 51.500 140.500 "/></g>
    <g fill="#333333A4" stroke="#333333A4">
        <path d="M 164.000 192.942 L 160.500 196.562 164.000 192.942 L 167.500 189.323 164.000 192.942 "/></g>
    <g fill="#3232324D" stroke="#3232324D">
        <path d="M 72.000 161.000 L 76.000 165.000 72.000 161.000 L 68.000 157.000 72.000 161.000 "/></g>
    <g fill="#33333323" stroke="#33333323">
        <path d="M 105.000 195.000 L 109.000 199.000 105.000 195.000 L 101.000 191.000 105.000 195.000 "/></g>
    <g fill="#33333323" stroke="#33333323">
        <path d="M 52.000 116.942 L 48.500 120.562 52.000 116.942 L 55.500 113.323 52.000 116.942 "/></g>
    <g fill="#33333323" stroke="#33333323">
        <path d="M 205.500 141.435 L 202.500 144.564 205.500 141.435 L 208.500 138.305 205.500 141.435 "/></g>
    <g fill="#33333323" stroke="#33333323">
        <path d="M 205.500 116.500 L 209.000 120.000 205.500 116.500 L 202.000 113.000 205.500 116.500 "/></g>
    <g fill="#33333323" stroke="#33333323">
        <path d="M 104.500 63.435 L 101.500 66.564 104.500 63.435 L 107.500 60.305 104.500 63.435 "/></g>
    <g fill="#3232324D" stroke="#3232324D">
        <path d="M 188.000 99.000 L 191.000 102.000 188.000 99.000 L 185.000 96.000 188.000 99.000 "/></g>
    <g fill="#33333323" stroke="#33333323">
        <path d="M 156.500 191.410 L 154.500 193.567 156.500 191.410 L 158.500 189.253 156.500 191.410 "/></g>
    <g fill="#3232324D" stroke="#3232324D">
        <path d="M 189.378 157.378 L 188.500 158.256 189.378 157.378 L 190.256 156.500 189.378 157.378 "/></g>
    <g fill="#3232324D" stroke="#3232324D">
        <path d="M 68.378 100.378 L 67.500 101.256 68.378 100.378 L 69.256 99.500 68.378 100.378 "/></g>
    <g fill="#33333323" stroke="#33333323">
        <path d="M 166.378 140.378 L 165.500 141.256 166.378 140.378 L 167.256 139.500 166.378 140.378 "/></g>
</svg>
